<?xml version="1.0" encoding="utf-8"?>
<svg viewBox="1.928 1.864 108.751 248.076" xmlns="http://www.w3.org/2000/svg">
  <path d="M 1.208 1.54 L 110.852 1.54 L 110.852 250.492 L 1.208 250.492 Z M 33.198 3.13 C 30.161 3.156 16.945 5.267 8.915 20.022 C 0.885 34.777 3.372 45.923 4.091 54.81 C 4.811 63.696 15.848 81.368 18.733 86.048 C 21.617 90.727 29.148 99.356 33.394 103.568 C 45.718 115.789 44.92 115.054 44.882 115.074 C 44.699 115.172 50.51 120.367 50.019 125.476 C 49.551 130.343 49.505 132.895 41.651 141.128 C 32.228 151.005 25.728 157.877 21.553 163.029 C 17.379 168.181 10.264 180.039 8.277 187.047 C 6.29 194.055 5.091 203.678 5.091 203.678 C 4.515 211.177 5.22 217.12 6.359 219.965 C 10.323 229.855 11.737 231.718 17.673 237.738 C 23.609 243.759 31.727 246.832 39.132 248.381 C 46.537 249.93 53.141 249.517 56.684 249.496 C 60.228 249.476 70.2 248.569 78.589 247.101 C 86.978 245.632 93.184 239.989 96.742 237.454 C 100.3 234.918 104.27 227.283 106.447 222.488 C 108.624 217.693 108.618 207.282 108.618 207.282 C 108.618 207.282 109.964 199.547 104.37 185.643 C 98.776 171.739 93.048 164.44 93.081 164.473 C 93.113 164.506 82.465 151.981 73.208 141.986 C 63.952 131.992 64.465 130.838 64.295 125.675 C 64.126 120.513 69.284 115.192 69.284 115.192 C 69.323 115.228 70.933 113.018 81.261 101.512 C 91.589 90.006 99.181 78.043 99.181 78.043 C 99.181 78.043 106.429 61.932 108.619 52.524 C 110.81 43.117 109.932 34.582 103.767 21.538 C 97.602 8.494 84.399 3.379 84.4 3.212 C 84.401 3.045 35.535 2.953 35.535 2.953 C 35.285 3.157 36.234 3.103 33.198 3.13 Z" style="fill: rgb(255, 255, 255);">
    <title>background</title>
  </path>
  <path d="M 32.922 2.789 C 29.885 2.815 16.669 4.926 8.639 19.681 C 0.609 34.436 3.096 45.582 3.815 54.469 C 4.535 63.355 15.572 81.027 18.457 85.707 C 21.341 90.386 28.872 99.015 33.118 103.227 C 45.442 115.448 44.644 114.713 44.606 114.733 C 44.423 114.831 50.234 120.026 49.743 125.135 C 49.275 130.002 49.229 132.554 41.375 140.787 C 31.952 150.664 25.452 157.536 21.277 162.688 C 17.103 167.84 9.988 179.698 8.001 186.706 C 6.014 193.714 4.815 203.337 4.815 203.337 C 4.239 210.836 4.944 216.779 6.083 219.624 C 10.047 229.514 11.461 231.377 17.397 237.397 C 23.333 243.418 31.451 246.491 38.856 248.04 C 46.261 249.589 52.865 249.176 56.408 249.155 C 59.952 249.135 69.924 248.228 78.313 246.76 C 86.702 245.291 92.908 239.648 96.466 237.113 C 100.024 234.577 103.994 226.942 106.171 222.147 C 108.348 217.352 108.342 206.941 108.342 206.941 C 108.342 206.941 109.688 199.206 104.094 185.302 C 98.5 171.398 92.772 164.099 92.805 164.132 C 92.837 164.165 82.189 151.64 72.932 141.645 C 63.676 131.651 64.189 130.497 64.019 125.334 C 63.85 120.172 69.008 114.851 69.008 114.851 C 69.047 114.887 70.657 112.677 80.985 101.171 C 91.313 89.665 98.905 77.702 98.905 77.702 C 98.905 77.702 106.153 61.591 108.343 52.183 C 110.534 42.776 109.656 34.241 103.491 21.197 C 97.326 8.153 84.123 3.038 84.124 2.871 C 84.125 2.704 35.259 2.612 35.259 2.612 C 35.009 2.816 35.958 2.762 32.922 2.789 Z" style="paint-order: stroke; stroke: rgba(42, 42, 42, 0.87); fill: none;">
    <title>stroke</title>
  </path>
</svg>